<?xml version="1.0" encoding="utf-8"?>
<!-- Generator: Adobe Illustrator 24.0.0, SVG Export Plug-In . SVG Version: 6.00 Build 0)  -->
<svg version="1.1" id="Livello_1" xmlns="http://www.w3.org/2000/svg" xmlns:xlink="http://www.w3.org/1999/xlink" x="0px" y="0px"
	 viewBox="0 0 70 70" style="enable-background:new 0 0 70 70;" xml:space="preserve">
<style type="text/css">
	.st0{fill:#FFFFFF;}
</style>
<path class="st0" d="M63.27,14.37H45.19v-3.72h14.93C53.76,4.08,44.84-0.01,34.96,0C15.64,0.02-0.02,15.71,0,35.04
	c0.01,9.48,3.8,18.07,9.93,24.37c-0.49-0.72-0.84-1.46-1.05-2.17c-0.36-1.22-0.36-2.09-0.39-5.57V35.03h5.22v17.15
	c0,1.19-0.04,2.33,0.36,3.4c1.07,2.69,3.99,3,5.65,3c0.83,0,2.92-0.04,4.47-1.38c1.54-1.38,1.54-2.96,1.54-5.29V35.03h5.26v17.58
	c-0.04,3.16-0.04,5.77-3,8.3c-2.84,2.49-6.52,2.73-8.42,2.73c-1.7,0-3.36-0.2-4.94-0.75c-0.65-0.22-1.24-0.5-1.78-0.81
	c6.05,4.96,13.78,7.93,22.21,7.92C54.36,69.98,70.02,54.29,70,34.96C69.99,27.26,67.49,20.15,63.27,14.37z M61.63,33.02l-2.23-3.18
	c0.75-0.49,3.07-2,3.07-6.27c0-0.72-0.06-1.46-0.34-2.18c-0.6-1.46-1.63-1.72-2.32-1.72c-1.29,0-1.75,0.89-2.01,1.52
	c-0.17,0.46-0.2,0.52-0.63,2.35l-0.52,2.43c-0.31,1.29-0.46,1.92-0.72,2.55c-0.37,0.92-1.6,3.41-4.95,3.41
	c-3.84,0-6.3-3.24-6.3-7.99c0-4.35,2.15-6.7,4.1-8.13l2.32,3.09c-1,0.69-3.01,2.01-3.01,5.24c0,2.03,0.92,3.81,2.46,3.81
	c1.72,0,2.06-1.89,2.41-3.72l0.46-2.09c0.57-2.72,1.69-6.56,6.02-6.56c4.64,0,6.5,4.3,6.5,8.59c0,1.12-0.11,2.38-0.46,3.61
	C65.07,29.13,64.1,31.5,61.63,33.02z"/>
</svg>
